<svg xmlns="http://www.w3.org/2000/svg" width="200" height="200" viewBox="0 0 200 200">
  <defs>
    <linearGradient id="sparkGradient" x1="0%" y1="0%" x2="100%" y2="100%">
      <stop offset="0%" stop-color="#FFC107"/>
      <stop offset="100%" stop-color="#FF5722"/>
    </linearGradient>
  </defs>

  <!-- Central Node -->
  <polygon fill="#37474F" points="80,100 90,83 110,83 120,100 110,117 90,117"/>

  <!-- Surrounding Agents -->
  <polygon fill="url(#sparkGradient)" points="80,50 90,33 110,33 120,50 110,67 90,67"/>
  <polygon fill="url(#sparkGradient)" points="130,75 140,58 160,58 170,75 160,92 140,92"/>
  <polygon fill="url(#sparkGradient)" points="130,125 140,108 160,108 170,125 160,142 140,142"/>
  <polygon fill="url(#sparkGradient)" points="80,150 90,133 110,133 120,150 110,167 90,167"/>
  <polygon fill="url(#sparkGradient)" points="30,125 40,108 60,108 70,125 60,142 40,142"/>
  <polygon fill="url(#sparkGradient)" points="30,75 40,58 60,58 70,75 60,92 40,92"/>
</svg>
